<svg width="50" height="50" viewBox="0 0 50 50" fill="none" xmlns="http://www.w3.org/2000/svg">
<path d="M3.72568 14H7.18501C7.58586 14 7.91085 13.6948 7.91085 13.3183C7.91085 12.9418 7.58586 12.6366 7.18501 12.6366H4.99102C5.27808 12.2037 5.58313 11.7784 5.9036 11.3634H17.2742C17.675 11.3634 18 11.0582 18 10.6817C18 10.3052 17.675 10 17.2742 10H5.53746C5.30899 10 5.09391 10.101 4.9568 10.2727C4.26453 11.1399 3.63626 12.0542 3.08949 12.9905C2.9661 13.2016 2.97062 13.4583 3.10112 13.6656C3.23185 13.8728 3.4692 14 3.72568 14Z" fill="#DDDDDD"/>
<path d="M1.72941 20H12.2705C12.6734 20 13 19.6948 13 19.3183C13 18.9418 12.6734 18.6366 12.2705 18.6366H2.67781C2.8097 18.2092 2.95667 17.7839 3.11791 17.3634H7.49594C7.89881 17.3634 8.22543 17.0582 8.22543 16.6817C8.22543 16.3052 7.89881 16 7.49594 16H2.61066C2.30861 16 2.03778 16.174 1.92966 16.4373C1.56435 17.3264 1.25849 18.2416 1.02067 19.1573C0.967791 19.3604 1.01759 19.5752 1.15596 19.7395C1.29425 19.904 1.50563 20 1.72941 20Z" fill="#DDDDDD"/>
<path d="M14.0024 33.3183C14.0024 32.9419 13.68 32.6366 13.2823 32.6366H3.08735C2.93002 32.2187 2.78559 31.7933 2.65565 31.3635H22.2799C22.6776 31.3635 23 31.0582 23 30.6817C23 30.3052 22.6776 30 22.2799 30H1.72018C1.49928 30 1.29063 30.096 1.15396 30.2603C1.01754 30.4248 0.968136 30.6394 1.02042 30.8425C1.25749 31.7678 1.55781 32.6827 1.91297 33.5618C2.0197 33.8258 2.28711 34 2.58559 34H13.2821C13.68 34.0001 14.0024 33.6948 14.0024 33.3183Z" fill="#DDDDDD"/>
<path d="M23 39.3183C23 38.9418 22.6662 38.6366 22.2545 38.6366H5.98145C5.65211 38.2207 5.33953 37.7953 5.04559 37.3634H7.30797C7.7197 37.3634 8.05351 37.0582 8.05351 36.6817C8.05351 36.3052 7.7197 36 7.30797 36H3.74551C3.48216 36 3.23812 36.1271 3.10392 36.3344C2.96972 36.5416 2.96524 36.7984 3.09198 37.0095C3.65117 37.942 4.2955 38.856 5.00696 39.7265C5.14788 39.8986 5.36895 40 5.60412 40H22.2544C22.6662 40 23 39.6948 23 39.3183Z" fill="#DDDDDD"/>
<path d="M25.0001 0C18.5698 0 12.4596 2.43726 7.7951 6.86259C7.57688 7.06962 7.50686 7.38857 7.61822 7.66799C7.72974 7.9474 8.00016 8.13057 8.3009 8.13057H14.8942C15.3 8.13057 15.629 7.80156 15.629 7.39576C15.629 6.98996 15.3 6.66096 14.8942 6.66096H10.256C14.4267 3.30074 19.5933 1.46969 25.0002 1.46969C37.7289 1.46969 48.1283 11.6295 48.5177 24.2655H1.48252C1.49575 23.8409 1.51904 23.4168 1.55507 22.9957H22.9947C23.4005 22.9957 23.7295 22.6667 23.7295 22.2609C23.7295 21.8551 23.4005 21.5261 22.9947 21.5261H0.890033C0.516585 21.5261 0.202451 21.8064 0.159804 22.1775C0.0538399 23.1067 0 24.0562 0 25C0 25.9325 0.0531046 26.8771 0.157598 27.8081C0.199265 28.1798 0.513644 28.4608 0.887827 28.4608H16.8613C17.2671 28.4608 17.5961 28.1318 17.5961 27.726C17.5961 27.3202 17.2671 26.9912 16.8613 26.9912H1.554C1.51871 26.5731 1.49575 26.1537 1.48252 25.7352H48.5177C48.5046 26.1567 48.4801 26.5754 48.4451 26.9912H39.39C38.9841 26.9912 38.6551 27.3202 38.6551 27.726C38.6551 28.1318 38.9841 28.4608 39.39 28.4608H48.275C48.1957 28.9973 48.0976 29.5274 47.9824 30.0516H43.8712C43.4654 30.0516 43.1364 30.3806 43.1364 30.7864C43.1364 31.1922 43.4654 31.5212 43.8712 31.5212H47.61C47.1624 33.0701 46.5593 34.5533 45.8194 35.9539H34.0339C33.6281 35.9539 33.2991 36.2829 33.2991 36.6887C33.2991 37.0945 33.6281 37.4235 34.0339 37.4235H44.9739C40.8145 44.0869 33.4168 48.5302 24.9998 48.5302C19.5831 48.5302 14.4108 46.695 10.2392 43.3258H14.2558C14.6616 43.3258 14.9906 42.9968 14.9906 42.591C14.9906 42.1852 14.6616 41.8562 14.2558 41.8562H8.28766C7.98709 41.8562 7.71691 42.0394 7.60515 42.3184C7.49379 42.5976 7.56324 42.9163 7.78129 43.1236C12.4453 47.5579 18.5602 50 25.0001 50C38.785 49.9999 50 38.7849 50 25C50 11.215 38.785 0 25.0001 0Z" fill="#DDDDDD"/>
<path d="M38.8586 23C39.3857 23 39.9029 22.9166 40.396 22.7523C43.4291 21.7419 44.8221 17.8907 43.5009 14.1673C42.4214 11.125 39.806 9 37.1412 9C36.6143 9 36.0971 9.08323 35.604 9.2475C32.5709 10.258 31.1779 14.1093 32.4991 17.8326C33.5787 20.875 36.194 23 38.8586 23ZM36.0805 10.5897C36.4199 10.4765 36.7769 10.4194 37.1415 10.4194C39.191 10.4194 41.2366 12.1503 42.1163 14.6288C43.1748 17.612 42.1894 20.6543 39.92 21.4104C39.5806 21.5236 39.2235 21.5809 38.8588 21.5809C36.8096 21.5809 34.7639 19.8498 33.8842 17.3713C32.8256 14.3879 33.8109 11.3456 36.0805 10.5897ZM39.1985 15.6008C39.4959 16.4391 39.1996 17.2976 38.5367 17.5184C37.8739 17.7393 37.0954 17.2387 36.798 16.4004C36.5006 15.5621 36.7969 14.7036 37.4598 14.4828C38.1226 14.262 38.901 14.7625 39.1985 15.6008Z" fill="#DDDDDD"/>
</svg>
