<svg width="280" height="120" viewBox="0 0 280 120" fill="none" xmlns="http://www.w3.org/2000/svg">
<path d="M52.4626 65.1329L56.291 76.3919C58.3624 82.4806 60.2117 87.3489 60.4528 87.3489C60.4567 87.3487 60.4605 87.3472 60.4634 87.3444C60.7283 87.1101 68.2217 65.3173 68.2217 65.3173H82.7449L65.2235 116.445H55.1292C55.1292 116.445 44.355 85.2816 44.3992 85.1635L33.1524 116.052H23.1598L5.85916 65.1329L20.3117 65.1422C20.3117 65.1422 28.2285 87.6151 28.334 87.6151L28.3349 87.6142L36.2346 65.132L52.4626 65.1329ZM0.925083 61.5917L2.51517 66.272L19.8158 117.192L20.6305 119.59H35.6248L36.4717 117.264L44.2808 95.8171C44.9538 97.7778 45.681 99.8912 46.4083 102.002C48.1999 107.203 49.9943 112.403 51.7914 117.601L52.6145 119.982H67.7461L68.5648 117.594L86.0862 66.4666L87.6922 61.7797H65.7021L64.8817 64.1658C63.3762 68.5436 61.8607 72.9179 60.3353 77.2887C60.0995 76.6099 59.8659 75.9304 59.6345 75.2501L55.8066 63.9916L54.9915 61.5944H33.7331L32.9025 63.9584L28.2868 77.0946C26.7337 72.7199 25.1859 68.3434 23.6433 63.965L22.8122 61.6063L20.3143 61.6045L5.86181 61.5953L0.925083 61.5917ZM276.134 64.9348L276.101 78.3358C276.101 78.3358 261.687 78.2881 254.359 78.2881C251.921 78.2881 250.267 78.2943 250.188 78.308C248.927 78.5384 248.122 81.2279 248.48 82.4077C248.656 83.0051 249.978 84.9548 251.408 86.7461C252.834 88.538 255.18 91.4698 256.609 93.2594C260.282 97.8499 260.786 98.756 261.127 101.392C261.678 105.674 259.657 110.307 255.904 113.362C252.141 116.427 252.307 116.449 224.383 116.449H223.157C206.174 116.444 197.192 116.303 195.885 116.012C193.562 115.486 189.861 112.461 180.081 103.064C176.563 99.6873 173.32 96.7307 173.154 96.7298C173.149 96.7298 173.147 96.7329 173.147 96.7378L173.032 116.45L157.18 116.381L157.082 65.5358H192.435C203.09 65.9209 210.3 76.5511 208.865 83.3301C208.54 84.8685 207.71 87.0981 207.02 88.2828C205.602 90.7149 201.994 93.8369 199.066 95.1772C197.985 95.6668 197.102 96.2372 197.102 96.4406C197.102 97.1968 200.661 100.707 201.994 101.265C203.133 101.742 206.449 101.848 221.075 101.848L225.758 101.849C240.459 101.849 239.719 101.743 240.855 99.3101C241.65 97.6169 241.046 96.6042 235.451 90.2935C228.364 83.231 229.105 79.8482 229.057 77.3497C228.956 74.3555 231.31 64.9379 243.546 64.9379L276.134 64.9348ZM181.166 88.4243C187.953 88.4243 189.331 88.3191 190.775 87.6907C195.65 85.5677 195.911 79.2981 191.235 76.5157C190.21 75.905 188.894 75.8046 181.538 75.7644L173.025 75.7193C173.095 75.7852 172.998 87.9109 172.998 87.9109C172.998 87.9109 175.13 88.4243 181.166 88.4243ZM279.675 61.3972H243.546C236.466 61.3972 232.279 64.195 230.014 66.5431C226.327 70.3607 225.461 75.1679 225.527 77.4342C225.53 77.623 225.529 77.8167 225.526 78.0188C225.494 81.7019 226.035 85.8715 232.883 92.7203C234.235 94.2464 236.499 96.8054 237.356 98.0772C235.485 98.3076 230.741 98.3076 225.758 98.3076H223.642L221.075 98.3067C212.286 98.3067 204.874 98.2811 203.356 97.9813C203.143 97.8433 202.846 97.6036 202.518 97.3188C205.555 95.447 208.625 92.5435 210.071 90.0618C210.948 88.5526 211.916 85.9745 212.322 84.0624C213.223 79.8062 211.737 74.6717 208.348 70.324C204.393 65.2514 198.639 62.2166 192.564 61.9972L192.499 61.9946H153.543L153.551 65.5402L153.649 116.385L153.656 119.9L157.166 119.915L173.017 119.985L176.543 120L176.565 116.468L176.633 104.659C176.956 104.966 177.291 105.286 177.635 105.616C188.334 115.893 191.923 118.741 195.105 119.461C195.979 119.656 197.425 119.979 223.154 119.986H224.381C238.312 119.986 245.303 119.986 249.462 119.584C254.226 119.123 255.759 118.041 258.055 116.167L258.132 116.105C262.85 112.263 265.34 106.452 264.63 100.937C264.167 97.3511 263.219 95.8613 259.366 91.0462L258.22 89.6134C256.868 87.9228 255.517 86.2313 254.167 84.5391C253.291 83.4407 252.601 82.4656 252.187 81.8266C252.732 81.8253 253.441 81.8244 254.359 81.8244C261.599 81.8244 275.946 81.8717 276.09 81.8726L279.626 81.8837L279.635 78.3425L279.668 64.9405L279.675 61.3972ZM176.553 84.7575L176.569 81.8576C176.573 80.9731 176.578 80.087 176.578 79.2751L181.519 79.3012C184.358 79.3162 188.63 79.3401 189.462 79.5767C190.525 80.2227 191.118 81.2221 191.054 82.2569C191.018 82.8158 190.753 83.8435 189.366 84.4458C188.593 84.7823 187.362 84.8867 181.167 84.8867C179.201 84.8867 177.685 84.8296 176.553 84.7575ZM124.964 64.7261L142.755 115.987L128.258 116.052L125.851 108.354L99.9311 108.145L97.6438 115.853L83.2928 115.703L100.858 64.7477L124.964 64.7261ZM113.306 72.2414C113.269 72.3886 111.034 78.5295 108.792 84.6691C106.531 90.86 104.263 97.0509 104.232 97.0986C104.292 97.0809 112.319 97.0632 117.464 97.0632C119.872 97.0632 121.648 97.0677 121.681 97.0756L121.682 97.0778V97.0765L121.681 97.0756C121.591 96.843 113.332 72.5407 113.306 72.2414L113.306 72.2387L113.306 72.2414ZM127.475 61.1858L124.961 61.1884L100.856 61.211L98.3406 61.2136L97.5197 63.5954L79.9541 114.55L78.3543 119.19L83.2566 119.241L97.6076 119.392L100.272 119.42L101.031 116.863L102.561 111.706L123.25 111.872L124.888 117.112L125.667 119.605L128.275 119.594L142.772 119.528L147.715 119.504L146.091 114.829L128.3 63.5684L127.475 61.1858ZM109.316 93.5305C109.985 91.7042 110.886 89.2366 112.11 85.8852L113.167 82.9909L114.124 85.8193C114.41 86.6621 115.663 90.3612 116.738 93.5265C113.542 93.5265 111.135 93.5269 109.316 93.5305ZM130.96 3.54295V16.19H105.667V54.8702H90.5875V16.1595L61.0643 16.2431C57.5053 16.2431 57.0284 19.0821 57.0284 20.1699C57.0284 21.5058 57.8983 22.8408 62.6761 28.899C65.7759 32.8342 68.624 36.7614 68.9993 37.6193C71.0482 42.3425 68.3988 49.7004 63.5724 52.6897C60.1326 54.818 60.7204 54.8706 35.1761 54.8706H3.53254V40.6621H46.762L48.0381 39.7733C48.8992 39.1723 49.3981 38.3454 49.588 37.2129C49.8529 35.5856 49.7161 35.3734 44.3775 29.351C38.0675 22.231 37.4007 20.9314 37.7275 16.3859C38.0984 11.1989 42.7172 3.66323 50.7891 3.66323L130.96 3.54295ZM134.493 0L130.954 0.00574867L50.7833 0.125144C46.1654 0.125144 41.8765 2.12391 38.71 5.75133C36.1427 8.69244 34.4577 12.5746 34.2034 16.1334C33.7737 22.1081 35.147 24.2674 41.7347 31.6999C43.6467 33.8566 45.4646 35.908 46.0714 36.7787C46.065 36.8026 46.057 36.8261 46.0475 36.849C46.0409 36.8547 46.0307 36.8618 46.0166 36.872L45.6536 37.1245H0V58.4083H35.1761C47.7705 58.4083 53.9869 58.3968 57.6493 58.127C61.8397 57.8201 63.1768 57.1002 65.1797 55.8541L65.4297 55.6984C71.7273 51.7982 74.9728 42.5088 72.2395 36.2091C71.3961 34.282 66.0563 27.4773 65.45 26.7079C63.7738 24.5818 61.0069 21.0742 60.5689 20.0589C60.5795 19.974 60.6003 19.8851 60.6223 19.8241C60.6952 19.8055 60.8347 19.7803 61.0643 19.7803L87.055 19.7064V58.4074H109.2V19.7272H134.493V0V0ZM172.052 3.95376L189.794 55.3469L175.324 55.2673L172.975 47.5685L147.17 47.4535L144.865 54.8698H130.13L147.678 3.95376H172.052ZM151.382 36.5094L168.957 36.4873V36.4877C169.018 36.4877 160.417 11.1931 160.359 11.1754C160.296 11.1732 151.184 36.5094 151.382 36.5094ZM174.569 0.416115H145.161L144.34 2.80005L126.792 53.7165L125.175 58.4078H147.468L148.24 55.9213L149.769 51.0035L170.36 51.0951L171.949 56.3012L172.71 58.7903L175.309 58.8049L189.78 58.885L194.768 58.9124L193.138 54.1914L175.396 2.79739L174.569 0.416115ZM156.29 32.966C157.604 29.2306 158.931 25.4995 160.27 21.7729C161.539 25.499 162.803 29.2268 164.062 32.9563L156.29 32.966ZM221.882 3.95376C233.329 3.95376 241.271 4.11738 242.8 4.3827C246.332 4.99825 249.524 6.88558 251.917 9.78734C254.421 12.82 254.995 14.2713 255.322 18.4276C255.791 24.2961 253.004 29.3594 247.506 32.6441C245.904 33.6036 244.257 34.5367 243.846 34.7224C243.214 35.0094 243.299 35.2845 244.429 36.6111C245.156 37.465 246.42 38.681 247.233 39.3125L248.716 40.4667L276.128 40.8602L276.397 54.8698H259.59C246.591 54.8698 242.432 54.7499 241.212 54.3396C239.389 53.7205 235.001 49.9971 226.079 41.4979L219.712 35.4304L219.779 54.8698H203.421V3.95376H221.882ZM219.473 26.8467H228.158C236.61 26.8467 236.875 26.8198 238.081 25.9141C240.236 24.2957 240.999 22.6281 240.77 20.0677C240.537 17.4273 239.52 16.0529 236.972 14.9474C235.537 14.3191 234.155 14.2178 227.381 14.2178H219.473V26.8467ZM221.882 0.416115H199.893V58.4074H223.327L223.315 54.8578L223.275 43.7067L223.647 44.0605C234.679 54.5721 237.934 56.9609 240.081 57.6893C241.728 58.2464 244.488 58.4074 259.593 58.4074H280L279.931 54.8021L279.662 40.7926L279.598 37.373L276.183 37.3239L249.953 36.9476L249.403 36.5195C249.229 36.3825 249.016 36.202 248.79 35.9977L249.323 35.6807C255.947 31.7216 259.419 25.33 258.847 18.1459C258.466 13.2998 257.602 11.1166 254.643 7.53297C251.735 4.00904 247.745 1.65252 243.406 0.897677C240.994 0.478909 228.886 0.416115 221.882 0.416115ZM223.005 17.755H227.381C233.574 17.755 234.802 17.858 235.558 18.1888C236.993 18.811 237.139 19.1135 237.251 20.3804C237.364 21.6402 237.209 22.1465 235.961 23.0827L235.862 23.1561C235.039 23.3091 231.983 23.3091 228.158 23.3091H223.005V17.755Z" fill="#FFC500"/>
</svg>
