<svg width="16" height="16" viewBox="0 0 16 16" fill="none" xmlns="http://www.w3.org/2000/svg">
<path d="M4.8 3C4.35817 3 4 3.71635 4 4.6C4 4.8209 4.08955 5 4.2 5C4.31045 5 4.4 4.8209 4.4 4.6C4.4 4.15815 4.57907 3.8 4.8 3.8C4.91045 3.8 5 3.6209 5 3.4C5 3.1791 4.91045 3 4.8 3Z" fill="#DDDDDD"/>
<path d="M15.7334 2.93333H12.8008V0.266667C12.8008 0.1194 12.6814 0 12.5342 0H11.4678C11.3206 0 11.2012 0.1194 11.2012 0.266667V2.93333H8.85298C8.56746 2.43863 8.03989 2.13373 7.4688 2.13333C7.26768 2.1337 7.06853 2.1729 6.88228 2.2488C6.36434 1.54187 5.37152 1.3888 4.66476 1.90687C4.53403 2.0027 4.41872 2.11803 4.32291 2.2488C4.13666 2.1729 3.93751 2.1337 3.73639 2.13333C2.95616 2.1343 2.29005 2.69733 2.15892 3.46667C1.27737 3.45267 0.551388 4.15617 0.537392 5.03793C0.537225 5.0475 0.537158 5.0571 0.537192 5.06667C0.538358 5.16103 0.548722 5.2551 0.568117 5.34747C0.500234 5.39427 0.436783 5.4472 0.378565 5.5056C0.12966 5.75743 -0.00677264 6.09927 0.000258936 6.45333L0.00399134 6.6712C0.00399134 6.68 0.00399134 6.68907 0.00585754 6.69787L1.07226 15.7645C1.08805 15.8988 1.20183 16 1.33699 16H14.1338C14.2719 16.0006 14.3876 15.8956 14.4004 15.7581L15.4433 4.53333H15.7334C15.8806 4.53333 16 4.41393 16 4.26667V3.2C16 3.05273 15.8806 2.93333 15.7334 2.93333ZM11.7344 0.533333H12.2676V2.93333H11.7344V0.533333ZM2.13659 3.99983C2.20911 3.99983 2.28142 4.0072 2.35244 4.02187C2.4967 4.05137 2.63753 3.95833 2.66706 3.81403C2.67113 3.79407 2.67293 3.7737 2.67236 3.75333C2.67236 3.74187 2.67236 3.73093 2.66943 3.71973C2.67772 3.1361 3.15281 2.6672 3.73636 2.66667C3.92968 2.6673 4.11903 2.72147 4.28342 2.8232C4.40953 2.89923 4.57338 2.8586 4.6494 2.73247C4.65253 2.72727 4.6555 2.72193 4.65826 2.71653C4.91933 2.19487 5.55374 1.9837 6.07528 2.24483C6.27929 2.347 6.44475 2.51247 6.54686 2.71653C6.61408 2.84757 6.77474 2.8993 6.90577 2.8321C6.91117 2.82933 6.9165 2.82637 6.9217 2.8232C7.08609 2.72147 7.27544 2.6673 7.46876 2.66667C7.89126 2.66697 8.27373 2.9167 8.44399 3.30347V3.30693C8.5019 3.43727 8.53293 3.57793 8.53516 3.72053C8.53383 3.732 8.5325 3.7472 8.53223 3.75333C8.5282 3.90057 8.64427 4.02317 8.79147 4.02717C8.81183 4.02773 8.83219 4.02593 8.85215 4.02187C8.91367 4.01 8.97612 4.00367 9.03877 4.00293C9.06036 4.00293 9.08196 4.00293 9.10355 4.00293C9.14248 4.00467 9.1813 4.0086 9.21979 4.01467C9.33899 4.03257 9.45433 4.07033 9.56104 4.1264L9.58157 4.1376C9.71197 4.20967 9.82591 4.3081 9.91615 4.42667C9.94761 4.46907 9.97604 4.5136 10.0012 4.56C10.0063 4.56907 10.0113 4.57813 10.0161 4.58667C10.0362 4.62533 10.054 4.66513 10.0694 4.70587C10.0788 4.73253 10.0868 4.7592 10.094 4.78587C10.1012 4.81253 10.111 4.8456 10.1169 4.876C10.1286 4.9389 10.1346 5.0027 10.1348 5.06667C10.1348 5.08747 10.1305 5.1096 10.1289 5.13093C10.1244 5.13093 10.1196 5.13093 10.115 5.13093C10.046 5.1193 9.97607 5.11317 9.90602 5.11253H9.8415C9.76366 5.11317 9.68604 5.12073 9.60956 5.1352C9.5965 5.13733 9.5829 5.1392 9.57117 5.1416C9.50042 5.15667 9.43097 5.17737 9.36349 5.20347L9.32457 5.22C9.25768 5.24797 9.1932 5.28143 9.13181 5.32C9.12622 5.32347 9.12115 5.328 9.11528 5.33173C9.05743 5.37023 9.00261 5.41313 8.95133 5.46C8.94359 5.4672 8.93533 5.4736 8.92787 5.48107C8.88844 5.51837 8.85142 5.55807 8.81696 5.6C8.79343 5.5694 8.76824 5.54013 8.74151 5.51227C8.47748 5.2467 8.11553 5.10197 7.74123 5.11227C7.65082 5.1126 7.56067 5.12153 7.47196 5.13893C7.40731 5.1531 7.34376 5.172 7.28188 5.19547C7.26161 5.20267 7.23975 5.20587 7.21976 5.21387C7.14998 5.24353 7.08289 5.27923 7.01927 5.32053C7.00968 5.3264 6.99901 5.33013 6.98942 5.33627C6.92876 5.37823 6.87168 5.42513 6.81879 5.47653C6.80893 5.48587 6.7972 5.4928 6.78733 5.5032C6.78573 5.5048 6.7836 5.50587 6.782 5.50773C6.7756 5.51413 6.77134 5.52187 6.7652 5.52853C6.73525 5.55953 6.70685 5.592 6.68016 5.62587C6.48354 5.37473 6.20281 5.20313 5.88969 5.14267C5.88196 5.1408 5.87396 5.14 5.86623 5.1384C5.78238 5.1225 5.69724 5.1142 5.61189 5.1136C5.52938 5.11423 5.44707 5.12253 5.36609 5.1384C5.35569 5.14053 5.34529 5.14187 5.3349 5.144C5.25635 5.1607 5.1795 5.18463 5.10535 5.21547L5.09149 5.2216C4.88044 5.31077 4.69659 5.45387 4.55829 5.63653C4.42002 5.45377 4.23614 5.31057 4.02509 5.22133L4.01176 5.21547C3.93751 5.18463 3.8606 5.1607 3.78195 5.144C3.77155 5.14187 3.76115 5.14053 3.75076 5.1384C3.66978 5.12253 3.58746 5.11423 3.50495 5.1136H3.47056C3.38881 5.1142 3.30727 5.12203 3.22689 5.13707C3.21356 5.1392 3.20023 5.14107 3.1869 5.144C3.11122 5.15953 3.0371 5.18177 2.96535 5.2104C2.95389 5.21493 2.94269 5.21973 2.93149 5.2248C2.85895 5.25463 2.78926 5.29097 2.72328 5.33333L2.71635 5.33867C2.60044 5.4163 2.49804 5.51243 2.41322 5.6232C2.22141 5.374 1.94627 5.2022 1.63822 5.1392L1.61396 5.13493C1.53261 5.11907 1.44996 5.11077 1.36708 5.11013H1.31936C1.23672 5.11047 1.1543 5.11883 1.07329 5.1352C1.07036 5.112 1.07036 5.08907 1.07036 5.06667C1.07029 4.47757 1.54764 3.9999 2.13659 3.99983ZM6.95532 6.39813C6.95269 6.20277 7.02844 6.0145 7.16567 5.87547C7.2026 5.83853 7.24315 5.80537 7.28671 5.77653L7.29417 5.7728C7.3355 5.74593 7.37922 5.723 7.42481 5.70427C7.4416 5.69787 7.45973 5.69467 7.47813 5.68907C7.51099 5.67723 7.54458 5.66743 7.57864 5.65973C7.63272 5.64967 7.68757 5.64457 7.74259 5.64453C7.97024 5.6367 8.19138 5.72123 8.35577 5.87893C8.47644 6.00837 8.5373 6.1825 8.52347 6.35893L8.34858 9.46667C8.33418 9.45387 8.31712 9.44293 8.30245 9.4304C8.24274 9.3792 8.17982 9.33013 8.11583 9.28267C8.08597 9.2608 8.05745 9.23867 8.02652 9.2176C7.94051 9.15947 7.85003 9.10453 7.75512 9.0528C7.74233 9.04587 7.73086 9.03787 7.71807 9.03093C7.60983 8.9736 7.49599 8.92133 7.37789 8.8728C7.34323 8.85866 7.30644 8.84613 7.27125 8.83307C7.18567 8.80053 7.09849 8.76987 7.00864 8.74267C6.98918 8.73653 6.97159 8.72853 6.95186 8.72293L6.95612 6.40747C6.95612 6.40507 6.95612 6.4024 6.95612 6.4L6.95532 6.39813ZM6.42132 6.4144L6.41732 8.60107C6.3984 8.59787 6.3792 8.5968 6.36027 8.59387C6.26696 8.57947 6.17339 8.56773 6.07954 8.55867C6.04035 8.55467 6.00116 8.55093 5.96197 8.548C5.84813 8.53973 5.73429 8.53413 5.62019 8.53386C5.61433 8.53386 5.60873 8.53386 5.60286 8.53386C5.57833 8.53386 5.55381 8.53653 5.52928 8.5368C5.44263 8.5368 5.35572 8.54133 5.26908 8.5472C5.22909 8.54987 5.1891 8.55333 5.14937 8.5568C5.06166 8.56507 4.97448 8.57547 4.88731 8.58827C4.86678 8.5912 4.84572 8.59227 4.82519 8.59547V6.43067C4.82519 6.42507 4.82679 6.41973 4.82679 6.41413C4.82679 6.40853 4.82812 6.41013 4.82839 6.40773C4.83109 6.3051 4.85392 6.20397 4.89557 6.11013C4.89957 6.10133 4.90544 6.09307 4.9097 6.08347C4.92626 6.0488 4.94533 6.01537 4.96675 5.98347C4.98668 5.9565 5.00831 5.93083 5.03154 5.90667C5.04167 5.89547 5.0502 5.88293 5.06113 5.87227C5.17327 5.76303 5.31487 5.6889 5.46849 5.65893L5.46929 5.66053C5.52401 5.64987 5.57963 5.64453 5.63539 5.64453C6.06078 5.6434 6.40916 5.98237 6.41972 6.40773C6.42039 6.40993 6.42092 6.41213 6.42132 6.4144ZM4.29146 6.43067V8.71146C4.27226 8.7168 4.25493 8.72453 4.236 8.73013C4.14109 8.75813 4.04938 8.78933 3.959 8.82293C3.92541 8.83546 3.89076 8.8464 3.85796 8.85946C3.73773 8.90773 3.62149 8.96027 3.51138 9.01787C3.49325 9.02747 3.47699 9.0384 3.4594 9.048C3.36849 9.09733 3.28077 9.1496 3.19759 9.2048C3.16427 9.2272 3.13308 9.25066 3.10082 9.27413C3.03657 9.32053 2.97445 9.36853 2.9142 9.41866C2.8974 9.4328 2.87767 9.44533 2.86088 9.46L2.68359 6.41147C2.68359 6.40853 2.68359 6.40587 2.68359 6.40293L2.68652 6.4C2.68566 6.19807 2.76744 6.0046 2.91287 5.86453C2.9166 5.86107 2.9206 5.85867 2.92406 5.8552C3.0322 5.755 3.16634 5.68727 3.31117 5.65973C3.36389 5.64967 3.41744 5.6446 3.47113 5.64453H3.50552C3.5586 5.64457 3.61159 5.64993 3.66361 5.66053H3.66494C3.81417 5.69177 3.95104 5.7659 4.05871 5.87387C4.06884 5.884 4.07711 5.89627 4.08671 5.90693C4.10993 5.9316 4.13149 5.9578 4.15122 5.98533C4.17218 6.01667 4.19071 6.04957 4.20668 6.08373C4.21148 6.09307 4.21734 6.1016 4.22161 6.1104C4.2629 6.20427 4.28552 6.30523 4.28826 6.40773C4.28826 6.40987 4.28826 6.41173 4.28986 6.4136C4.28986 6.41947 4.29146 6.4248 4.29146 6.43067ZM1.57427 15.4664L0.537192 6.6488L0.533726 6.444C0.526894 6.13397 0.70505 5.8496 0.986946 5.72053C1.09052 5.67133 1.20366 5.64547 1.31833 5.6448H1.36472C1.73309 5.6469 2.05101 5.9037 2.13066 6.26347C2.13906 6.30427 2.14429 6.3456 2.14639 6.3872C2.14639 6.40213 2.15119 6.416 2.15146 6.43093L2.36314 10.0755C2.34714 10.1043 2.33648 10.1339 2.32155 10.1629C2.30662 10.192 2.29089 10.224 2.27782 10.2552C2.25916 10.2989 2.2445 10.3429 2.22957 10.3872C2.21944 10.4176 2.20771 10.4475 2.19944 10.4779C2.18558 10.5269 2.17652 10.5765 2.16745 10.6264C2.16265 10.6531 2.15545 10.6779 2.15199 10.704C2.12816 10.8722 2.13059 11.0432 2.15919 11.2107C2.16425 11.2419 2.17465 11.2723 2.18158 11.3032C2.19381 11.3634 2.20921 11.423 2.2277 11.4816C2.24023 11.5184 2.25756 11.5541 2.27249 11.5904C2.29409 11.6424 2.31461 11.6944 2.34127 11.7453C2.361 11.7837 2.3858 11.8211 2.40846 11.8589C2.43112 11.8968 2.44845 11.9323 2.47324 11.968L2.6492 14.992L2.67586 15.4664H1.57427ZM4.29172 15.4667H3.21172L3.12481 13.9709L3.04243 12.5549C3.0515 12.5619 3.0619 12.5677 3.07096 12.5744C3.12881 12.6173 3.18986 12.6576 3.25198 12.6971C3.27864 12.7136 3.30184 12.7312 3.32823 12.7469C3.41797 12.8003 3.51175 12.851 3.60949 12.8992C3.62975 12.9091 3.65161 12.9171 3.67241 12.9259C3.75106 12.9624 3.83237 12.9973 3.91475 13.0291C3.95394 13.044 3.99473 13.0557 4.03445 13.0709C4.10244 13.0947 4.17122 13.1176 4.24187 13.1384C4.25893 13.1435 4.27466 13.1499 4.29172 13.1547V15.4667ZM6.40426 15.4667H4.82492V13.2717C4.84198 13.2744 4.85931 13.2752 4.87638 13.2776C4.97432 13.2922 5.07269 13.3038 5.1715 13.3125L5.25148 13.3195C5.36799 13.3277 5.48476 13.3333 5.60179 13.3333H5.61672C5.73483 13.3333 5.8532 13.3272 5.97104 13.3181C6.00223 13.316 6.03315 13.3131 6.06408 13.3101C6.15969 13.3011 6.25507 13.2892 6.35014 13.2747C6.36934 13.2717 6.38853 13.2707 6.40746 13.2675L6.40426 15.4667ZM8.01159 15.4667H6.93746L6.94173 13.1469C6.95826 13.1421 6.97345 13.1357 6.98972 13.1309C7.06143 13.1093 7.13128 13.0856 7.20033 13.0608C7.23845 13.0472 7.27711 13.0341 7.31443 13.0203C7.39601 12.9883 7.47439 12.9536 7.55198 12.9173C7.5733 12.9072 7.59623 12.8987 7.61729 12.8883C7.7147 12.8403 7.80818 12.789 7.89776 12.7344C7.91908 12.7213 7.93855 12.7077 7.95961 12.6933C8.02572 12.6507 8.09077 12.6072 8.15209 12.56C8.15956 12.5544 8.16809 12.5493 8.17555 12.5437L8.01159 15.4667ZM8.26513 11.7032C8.22344 11.7605 8.17842 11.8153 8.13023 11.8672C7.71437 12.28 7.18753 12.5631 6.61381 12.6819C5.95794 12.8364 5.27541 12.8386 4.61857 12.6883C3.96734 12.5663 3.37812 12.2232 2.95046 11.7171C2.77403 11.4934 2.67556 11.2182 2.66999 10.9333C2.67286 10.7009 2.73974 10.4737 2.86328 10.2768C3.172 9.76453 3.81157 9.36426 4.61831 9.1784C4.78157 9.1408 4.94686 9.11273 5.11338 9.0944C5.13604 9.09173 5.15897 9.09253 5.18163 9.0904C5.32586 9.0768 5.47089 9.06693 5.61592 9.06747C5.67858 9.06747 5.74096 9.07547 5.80254 9.0784C5.90918 9.0832 6.01583 9.0856 6.12247 9.09813C6.29006 9.11793 6.45632 9.1475 6.62047 9.18667C7.41708 9.3776 8.04625 9.77866 8.34724 10.2872C8.46725 10.4816 8.5322 10.7049 8.5352 10.9333C8.52993 11.2123 8.43526 11.4821 8.26513 11.7032ZM8.54559 15.4667L8.74288 11.9501C8.76767 11.9133 8.78607 11.8755 8.8082 11.8381C8.83032 11.8008 8.85138 11.768 8.86951 11.7315C8.89617 11.6781 8.91723 11.6248 8.93856 11.5728C8.95189 11.5389 8.96789 11.5059 8.97935 11.4717C8.99788 11.4124 9.01318 11.3522 9.02521 11.2912C9.03161 11.2624 9.04094 11.2341 9.04574 11.2051C9.0606 11.1152 9.06816 11.0244 9.0684 10.9333C9.06826 10.8577 9.06293 10.7821 9.0524 10.7072C9.0492 10.6835 9.0428 10.6597 9.03854 10.636C9.02947 10.5851 9.02014 10.5344 9.00628 10.484C8.99855 10.4557 8.98788 10.4277 8.97962 10.3997C8.96469 10.3547 8.94976 10.3093 8.9311 10.2648C8.9183 10.2341 8.9031 10.2043 8.88844 10.1739C8.87378 10.1435 8.86365 10.1165 8.84845 10.0883L8.89564 9.2464L9.0556 6.38453C9.08056 5.96873 9.42507 5.64433 9.84154 5.64453H9.90632C9.96064 5.64473 10.0148 5.65063 10.0679 5.66213C10.1217 5.67397 10.1741 5.6913 10.2244 5.71387C10.2491 5.72577 10.2732 5.73893 10.2966 5.75333C10.3148 5.764 10.3334 5.77387 10.3499 5.78587C10.372 5.80137 10.3933 5.818 10.4137 5.83573C10.4318 5.8512 10.4491 5.86773 10.467 5.88507C10.4852 5.90287 10.5023 5.92163 10.5184 5.94133C10.5388 5.9673 10.5575 5.99457 10.5744 6.02293C10.5903 6.0487 10.6045 6.07543 10.6171 6.10293C10.631 6.1317 10.643 6.16137 10.6531 6.19173C10.6592 6.21093 10.6637 6.2304 10.6685 6.25013C10.6763 6.28227 10.6819 6.31487 10.6853 6.34773C10.6872 6.3648 10.6893 6.3816 10.6901 6.39867C10.6927 6.44963 10.6904 6.5007 10.6832 6.5512L9.63092 15.4667H8.54559ZM13.8909 15.4667H10.1681L11.198 6.7072L11.2095 6.63307C11.218 6.5761 11.2227 6.51867 11.2236 6.46107C11.2236 6.4448 11.2236 6.42853 11.2236 6.41253C11.2232 6.36797 11.2204 6.32347 11.2153 6.2792C11.2137 6.26587 11.2127 6.25253 11.2105 6.2392C11.1936 6.12237 11.161 6.00833 11.1135 5.90027L11.1111 5.89493C11.087 5.84087 11.0593 5.78847 11.0282 5.73813L11.0252 5.7336C10.9906 5.6764 10.9516 5.62203 10.9085 5.57093C10.8307 5.4809 10.741 5.40183 10.6419 5.336C10.6419 5.3304 10.6419 5.32533 10.6435 5.31973C10.6591 5.23627 10.6674 5.1516 10.668 5.06667C10.6674 4.98213 10.66 4.89777 10.6461 4.8144C10.6443 4.80427 10.6432 4.79387 10.6413 4.78347C10.626 4.69843 10.6038 4.6148 10.575 4.53333H14.9069L13.8909 15.4667ZM15.4668 4H10.2598C9.96691 3.66833 9.54784 3.4754 9.10545 3.46853C9.09292 3.46853 9.08093 3.46667 9.0684 3.46667H15.4668V4Z" fill="#DDDDDD"/>
</svg>
