<svg width="13" height="13" viewBox="0 0 13 13" fill="none" xmlns="http://www.w3.org/2000/svg">
<path d="M8.68157 1.48735C6.69831 -0.495784 3.47039 -0.495784 1.48713 1.48735C-0.495709 3.47092 -0.495709 6.69818 1.48713 8.68175C3.25328 10.4474 6.00397 10.6365 7.98595 9.25782C8.02765 9.45514 8.12309 9.64344 8.27658 9.79691L11.1648 12.685C11.5857 13.105 12.2659 13.105 12.6846 12.685C13.1051 12.2645 13.1051 11.5844 12.6846 11.1653L9.79638 8.27635C9.64375 8.12417 9.45502 8.0283 9.25768 7.9866C10.6373 6.00432 10.4482 3.25425 8.68157 1.48735ZM7.76969 7.76993C6.28901 9.25051 3.87926 9.25051 2.39901 7.76993C0.91919 6.28935 0.91919 3.88018 2.39901 2.3996C3.87926 0.919451 6.28901 0.919451 7.76969 2.3996C9.25037 3.88018 9.25037 6.28935 7.76969 7.76993Z" fill="#DDDDDD"/>
</svg>
